<?xml version="1.0" encoding="utf-8"?>
<svg id="master-artboard" viewBox="0 0 1920 1920" version="1.1" xmlns="http://www.w3.org/2000/svg" x="0px" y="0px" style="enable-background:new 0 0 1400 980;" width="1920px" height="1920px"><defs><radialGradient id="gradient-0" gradientUnits="objectBoundingBox" cx="0.5" cy="0.5" r="0.5">
                <stop offset="0" style="stop-color: #ff9cb6"/>
                <stop offset="1" style="stop-color: #ff366c"/>
              </radialGradient><radialGradient id="gradient-1" gradientUnits="objectBoundingBox" cx="0.5" cy="0.5" r="0.5">
                <stop offset="0" style="stop-color: #ff9cb6"/>
                <stop offset="1" style="stop-color: #ff366c"/>
              </radialGradient><radialGradient id="gradient-2" gradientUnits="objectBoundingBox" cx="0.5" cy="0.5" r="0.5">
                <stop offset="0" style="stop-color: #ff9cb6"/>
                <stop offset="1" style="stop-color: #ff366c"/>
              </radialGradient><radialGradient id="gradient-3" gradientUnits="objectBoundingBox" cx="0.5" cy="0.5" r="0.5">
                <stop offset="0" style="stop-color: #ff9cb6"/>
                <stop offset="1" style="stop-color: #ff366c"/>
              </radialGradient><radialGradient id="gradient-4" gradientUnits="objectBoundingBox" cx="0.5" cy="0.5" r="0.5">
                <stop offset="0" style="stop-color: #ff9cb6"/>
                <stop offset="1" style="stop-color: #ff366c"/>
              </radialGradient><radialGradient id="gradient-5" gradientUnits="objectBoundingBox" cx="0.5" cy="0.5" r="0.5">
                <stop offset="0" style="stop-color: #ff9cb6"/>
                <stop offset="1" style="stop-color: #ff366c"/>
              </radialGradient><radialGradient id="gradient-6" gradientUnits="objectBoundingBox" cx="0.5" cy="0.5" r="0.5">
                <stop offset="0" style="stop-color: #ff9cb6"/>
                <stop offset="1" style="stop-color: #ff366c"/>
              </radialGradient><radialGradient id="gradient-7" gradientUnits="objectBoundingBox" cx="0.5" cy="0.5" r="0.5">
                <stop offset="0" style="stop-color: #ff9cb6"/>
                <stop offset="1" style="stop-color: #ff366c"/>
              </radialGradient><radialGradient id="gradient-8" gradientUnits="objectBoundingBox" cx="0.5" cy="0.5" r="0.5">
                <stop offset="0" style="stop-color: #ff9cb6"/>
                <stop offset="1" style="stop-color: #ff366c"/>
              </radialGradient><radialGradient id="gradient-9" gradientUnits="objectBoundingBox" cx="0.5" cy="0.5" r="0.5">
                <stop offset="0" style="stop-color: #ff9cb6"/>
                <stop offset="1" style="stop-color: #ff366c"/>
              </radialGradient><radialGradient id="gradient-10" gradientUnits="objectBoundingBox" cx="0.5" cy="0.5" r="0.5">
                <stop offset="0" style="stop-color: #ff9cb6"/>
                <stop offset="1" style="stop-color: #ff366c"/>
              </radialGradient><radialGradient id="gradient-11" gradientUnits="objectBoundingBox" cx="0.5" cy="0.5" r="0.5">
                <stop offset="0" style="stop-color: #ff9cb6"/>
                <stop offset="1" style="stop-color: #ff366c"/>
              </radialGradient><radialGradient id="gradient-12" gradientUnits="objectBoundingBox" cx="0.5" cy="0.5" r="0.5">
                <stop offset="0" style="stop-color: #ff9cb6"/>
                <stop offset="1" style="stop-color: #ff366c"/>
              </radialGradient><radialGradient id="gradient-13" gradientUnits="objectBoundingBox" cx="0.5" cy="0.5" r="0.5">
                <stop offset="0" style="stop-color: #ff9cb6"/>
                <stop offset="1" style="stop-color: #ff366c"/>
              </radialGradient><radialGradient id="gradient-14" gradientUnits="objectBoundingBox" cx="0.5" cy="0.5" r="0.5">
                <stop offset="0" style="stop-color: #c4ff57"/>
                <stop offset="1" style="stop-color: #9cf000"/>
              </radialGradient><radialGradient id="gradient-15" gradientUnits="objectBoundingBox" cx="0.5" cy="0.5" r="0.5">
                <stop offset="0" style="stop-color: #cbff63"/>
                <stop offset="1" style="stop-color: #a8fc00"/>
              </radialGradient><radialGradient id="gradient-16" gradientUnits="objectBoundingBox" cx="0.5" cy="0.5" r="0.5">
                <stop offset="0" style="stop-color: #cbff7d"/>
                <stop offset="1" style="stop-color: #a2ff17"/>
              </radialGradient><radialGradient id="gradient-17" gradientUnits="objectBoundingBox" cx="0.5" cy="0.5" r="0.5">
                <stop offset="0" style="stop-color: #c1ff7a"/>
                <stop offset="1" style="stop-color: #91ff14"/>
              </radialGradient></defs><rect id="ee-background" x="0" y="0" width="1920" height="1920" style="fill: white; fill-opacity: 0; pointer-events: none;"/><g transform="matrix(-1.7130665779113767, 2.3841164112091064, -2.3841164112091064, -1.7130665779113767, 2115.0090379957037, 649.3729092288072)"><g id="Layer_2_1_" transform="matrix(1, 0, 0, 1, 0, 0)">
	<g id="Layer_1-2_1_">
		<path class="st0" d="M 260.48956298828125 400.6124694824219 C 266.90223693847656 434.6380615234375 253.47314453125 470.2886962890625 232.47314453125 470.2886962890625 C 211.47314453125 470.2886962890625 189.70208740234375 432.08209228515625 200.76983642578125 393.2301452636719 C 211.83757891381467 354.3781629590327 239.22399106435066 333.4601785851765 239 334 C 239 334 254.07688903808594 366.58685302734375 260.48956298828125 400.6124694824219 Z" style="fill: rgb(255, 156, 182); stroke: rgb(0, 0, 0); stroke-width: 2;"/>
	</g>
</g></g><g transform="matrix(2.933835983276367, -0.10591381043195724, -0.10591381043195724, -2.933835983276367, 302.998478913672, 1614.0455776858375)"><g id="g-3" transform="matrix(1, 0, 0, 1, 0, 0)">
	<g id="g-4">
		<path class="st0" d="M 266.85321044921875 397.96046142578126 C 273.26588439941406 431.9860534667969 253.47314453125 470.2886962890625 232.47314453125 470.2886962890625 C 211.47314453125 470.2886962890625 200.1529998779297 433.2918395996094 211.2207489013672 394.439892578125 C 222.2884913894006 355.5879102734858 239.22399106435066 333.4601785851765 239 334 C 239 334 260.44053649902344 363.9348449707031 266.85321044921875 397.96046142578126 Z" style="fill: rgb(255, 156, 182); stroke: rgb(0, 0, 0); stroke-width: 2;"/>
	</g>
</g></g><g transform="matrix(2.0807266235351567, 2.0710399150848393, 2.0710399150848393, -2.0807266235351567, -187.39501473867085, 814.735274951463)"><g id="g-5" transform="matrix(1, 0, 0, 1, 0, 0)">
	<g id="g-6">
		<path class="st0" d="M 266.0908203125 398.08482055664064 C 272.5034942626953 432.11041259765625 253.47314453125 470.2886962890625 232.47314453125 470.2886962890625 C 211.47314453125 470.2886962890625 200.1529998779297 433.2918395996094 211.2207489013672 394.439892578125 C 222.2884913894006 355.5879102734858 239.22399106435066 333.4601785851765 239 334 C 239 334 259.6781463623047 364.0592041015625 266.0908203125 398.08482055664064 Z" style="fill: rgb(255, 156, 182); stroke: rgb(0, 0, 0); stroke-width: 2;"/>
	</g>
</g></g><path d="M 986.5806274414062 1252.1260986328125 C 984.6894065260141 1248.3438289503001 1104.5307191791403 1160.8981702720732 1101.9075927734375 1171.66552734375 C 1085.2957083137449 1239.8538390098402 964.8177012872469 1366.0249614373072 983.8986206054688 1340.6326904296875 L 986.5806274414062 1252.1260986328125 Z" style="fill: url('#gradient-17'); fill-opacity: 1; stroke: rgb(0, 0, 0); stroke-opacity: 1; stroke-width: 4; paint-order: fill;"/><g transform="matrix(0.02342666456582082, 0.023889794328062344, -0.6567380594248193, 0.6440215426979308, 1081.9951961455663, 1193.9167744274052)"><g id="g-45" transform="matrix(1, 0, 0, 1, 0, 0)">
	<g id="g-46">
		<path class="st0" d="M 112.42572975158691 41.7746696472168 L 140.40013885498047 42.01470947265625 L 158 149 L 58 149 L 112.42572975158691 41.7746696472168 Z" style="fill: rgb(0, 0, 0);"/>
	</g>
</g></g><path d="M 966.6163940429688 911.5969848632812 L 955.9384155273438 1801.4266357421875 C 958.8985600627864 1816.227445513721 991.5896940378663 1815.9541008612268 987.9723510742188 1797.8673095703125 L 984.4130249023438 879.5631103515625" style="fill: url('#gradient-15'); fill-opacity: 1; stroke: rgb(0, 0, 0); stroke-opacity: 1; stroke-width: 4; paint-order: fill;"/><g transform="matrix(1.1796441078186035, 2.688321352005005, -2.688321352005005, 1.1796441078186035, 1546.7554979566412, -377.9705661129901)"><g id="g-7" transform="matrix(1, 0, 0, 1, 0, 0)">
	<g id="g-8">
		<path class="st0" d="M 260.48956298828125 400.6124694824219 C 266.90223693847656 434.6380615234375 253.47314453125 470.2886962890625 232.47314453125 470.2886962890625 C 211.47314453125 470.2886962890625 196.0438690185547 430.6075744628906 207.1116180419922 391.75562744140626 C 218.1793605300256 352.90364513676707 239.22399106435066 333.4601785851765 239 334 C 239 334 254.07688903808594 366.58685302734375 260.48956298828125 400.6124694824219 Z" style="fill: rgb(255, 156, 182); stroke: rgb(0, 0, 0); stroke-width: 2;"/>
	</g>
</g></g><g transform="matrix(2.8758208751678467, 0.5901638865470887, -0.5901638865470887, 2.8758208751678467, 482.9139757398448, -447.2393649411148)"><g id="g-9" transform="matrix(1, 0, 0, 1, 0, 0)">
	<g id="g-10">
		<path class="st0" d="M 260.48956298828125 400.6124694824219 C 266.90223693847656 434.6380615234375 253.47314453125 470.2886962890625 232.47314453125 470.2886962890625 C 211.47314453125 470.2886962890625 196.34246826171875 430.77899169921875 207.41021728515625 391.9270446777344 C 218.47795977318967 353.0750623730952 239.22399106435066 333.4601785851765 239 334 C 239 334 254.07688903808594 366.58685302734375 260.48956298828125 400.6124694824219 Z" style="fill: rgb(255, 156, 182); stroke: rgb(0, 0, 0); stroke-width: 2;"/>
	</g>
</g></g><g transform="matrix(2.3752713203430176, -1.7253165245056152, 1.7253165245056152, 2.3752713203430176, -136.60763070546864, 285.19093291044754)"><g id="g-11" transform="matrix(1, 0, 0, 1, 0, 0)">
	<g id="g-12">
		<path class="st0" d="M 260.48956298828125 400.6124694824219 C 266.90223693847656 434.6380615234375 253.47314453125 470.2886962890625 232.47314453125 470.2886962890625 C 211.47314453125 470.2886962890625 194.93019104003906 429.4981994628906 205.99794006347656 390.64625244140626 C 217.06568255150998 351.79427013676707 239.22399106435066 333.4601785851765 239 334 C 239 334 254.07688903808594 366.58685302734375 260.48956298828125 400.6124694824219 Z" style="fill: rgb(255, 156, 182); stroke: rgb(0, 0, 0); stroke-width: 2;"/>
	</g>
</g></g><g transform="matrix(0.1723383218050003, -2.93068790435791, 2.93068790435791, 0.1723383218050003, -14.728412901989941, 1276.072677295213)"><g id="g-13" transform="matrix(1, 0, 0, 1, 0, 0)">
	<g id="g-14">
		<path class="st0" d="M 262.1005859375 400.51771240234376 C 268.5132598876953 434.5433044433594 253.47314453125 470.2886962890625 232.47314453125 470.2886962890625 C 211.47314453125 470.2886962890625 193.7089385986328 433.6707763671875 204.7766876220703 394.81882934570314 C 215.84443011010373 355.96684704106394 239.22399106435066 333.4601785851765 239 334 C 239 334 255.6879119873047 366.4920959472656 262.1005859375 400.51771240234376 Z" style="fill: rgb(255, 156, 182); stroke: rgb(0, 0, 0); stroke-width: 2;"/>
	</g>
</g></g><g transform="matrix(1.5370976924896242, -1.0548927783966064, -1.647077560424805, -2.3999900817871094, 1136.1163378003912, 1665.6837612795878)"><g id="g-15" transform="matrix(1, 0, 0, 1, 0, 0)">
	<g id="g-16">
		<path class="st0" d="M 266.85321044921875 397.96046142578126 C 273.26588439941406 431.9860534667969 253.47314453125 470.2886962890625 232.47314453125 470.2886962890625 C 211.47314453125 470.2886962890625 200.1529998779297 433.2918395996094 211.2207489013672 394.439892578125 C 222.2884913894006 355.5879102734858 239.22399106435066 333.4601785851765 239 334 C 239 334 260.44053649902344 363.9348449707031 266.85321044921875 397.96046142578126 Z" style="fill: rgb(255, 156, 182); stroke: rgb(0, 0, 0); stroke-width: 2;"/>
	</g>
</g></g><g transform="matrix(1.6938326358795166, 0.7787084579467772, 1.2158629894256592, -2.644710540771484, 167.89543631113293, 1300.2053677249005)"><g id="g-17" transform="matrix(1, 0, 0, 1, 0, 0)">
	<g id="g-18">
		<path class="st0" d="M 266.85321044921875 397.96046142578126 C 273.26588439941406 431.9860534667969 253.47314453125 470.2886962890625 232.47314453125 470.2886962890625 C 211.47314453125 470.2886962890625 200.1529998779297 433.2918395996094 211.2207489013672 394.439892578125 C 222.2884913894006 355.5879102734858 239.22399106435066 333.4601785851765 239 334 C 239 334 260.44053649902344 363.9348449707031 266.85321044921875 397.96046142578126 Z" style="fill: rgb(255, 156, 182); stroke: rgb(0, 0, 0); stroke-width: 2;"/>
	</g>
</g></g><g transform="matrix(0.6728706359863281, 1.7385956048965456, 2.714604139328003, -1.0506019592285158, -62.050879454247024, 561.4722744631815)"><g id="g-19" transform="matrix(1, 0, 0, 1, 0, 0)">
	<g id="g-20">
		<path class="st0" d="M 266.85321044921875 397.96046142578126 C 273.26588439941406 431.9860534667969 253.47314453125 470.2886962890625 232.47314453125 470.2886962890625 C 211.47314453125 470.2886962890625 200.1529998779297 433.2918395996094 211.2207489013672 394.439892578125 C 222.2884913894006 355.5879102734858 239.22399106435066 333.4601785851765 239 334 C 239 334 260.44053649902344 363.9348449707031 266.85321044921875 397.96046142578126 Z" style="fill: rgb(255, 156, 182); stroke: rgb(0, 0, 0); stroke-width: 2;"/>
	</g>
</g></g><g transform="matrix(0.33309653401374817, -1.8342599868774414, -2.8639631271362305, -0.5200984477996826, 1809.555546784767, 1253.505294482713)"><g id="g-21" transform="matrix(1, 0, 0, 1, 0, 0)">
	<g id="g-22">
		<path class="st0" d="M 266.85321044921875 397.96046142578126 C 273.26588439941406 431.9860534667969 253.47314453125 470.2886962890625 232.47314453125 470.2886962890625 C 211.47314453125 470.2886962890625 200.1529998779297 433.2918395996094 211.2207489013672 394.439892578125 C 222.2884913894006 355.5879102734858 239.22399106435066 333.4601785851765 239 334 C 239 334 260.44053649902344 363.9348449707031 266.85321044921875 397.96046142578126 Z" style="fill: rgb(255, 156, 182); stroke: rgb(0, 0, 0); stroke-width: 2;"/>
	</g>
</g></g><g transform="matrix(0.006897742860019207, -0.0752730816602707, 2.069716691970825, 0.18965512514114385, 590.9083305692529, 605.90283203125)"><g id="Layer_2_4_" transform="matrix(1, 0, 0, 1, 0, 0)">
	<g id="Layer_1-2_4_">
		<path class="st0" d="M 112.42572975158691 41.7746696472168 L 140.40013885498047 42.01470947265625 L 158 149 L 58 149 L 112.42572975158691 41.7746696472168 Z" style="fill: rgb(0, 0, 0);"/>
	</g>
</g></g><g transform="matrix(-1.3837217092514038, -1.2493187189102173, -1.950660228729248, 2.160499334335327, 1928.1788378003912, 228.48715178251763)"><g id="g-23" transform="matrix(1, 0, 0, 1, 0, 0)">
	<g id="g-24">
		<path class="st0" d="M 266.85321044921875 397.96046142578126 C 273.26588439941406 431.9860534667969 253.47314453125 470.2886962890625 232.47314453125 470.2886962890625 C 211.47314453125 470.2886962890625 200.1529998779297 433.2918395996094 211.2207489013672 394.439892578125 C 222.2884913894006 355.5879102734858 239.22399106435066 333.4601785851765 239 334 C 239 334 260.44053649902344 363.9348449707031 266.85321044921875 397.96046142578126 Z" style="fill: rgb(255, 156, 182); stroke: rgb(0, 0, 0); stroke-width: 2;"/>
	</g>
</g></g><g transform="matrix(-1.8525186777114868, 0.20897445082664487, 0.3262763023376465, 2.8924734592437744, 1322.8479051832037, -364.82240327119314)"><g id="g-25" transform="matrix(1, 0, 0, 1, 0, 0)">
	<g id="g-26">
		<path class="st0" d="M 266.85321044921875 397.96046142578126 C 273.26588439941406 431.9860534667969 253.47314453125 470.2886962890625 232.47314453125 470.2886962890625 C 211.47314453125 470.2886962890625 200.1529998779297 433.2918395996094 211.2207489013672 394.439892578125 C 222.2884913894006 355.5879102734858 239.22399106435066 333.4601785851765 239 334 C 239 334 260.44053649902344 363.9348449707031 266.85321044921875 397.96046142578126 Z" style="fill: rgb(255, 156, 182); stroke: rgb(0, 0, 0); stroke-width: 2;"/>
	</g>
</g></g><g transform="matrix(-1.0324430465698242, 1.5522747039794922, 2.4236764907836914, 1.6120417118072512, 448.0925951246095, -247.10160859345868)"><g id="g-27" transform="matrix(1, 0, 0, 1, 0, 0)">
	<g id="g-28">
		<path class="st0" d="M 266.85321044921875 397.96046142578126 C 273.26588439941406 431.9860534667969 253.47314453125 470.2886962890625 232.47314453125 470.2886962890625 C 211.47314453125 470.2886962890625 200.1529998779297 433.2918395996094 211.2207489013672 394.439892578125 C 222.2884913894006 355.5879102734858 239.22399106435066 333.4601785851765 239 334 C 239 334 260.44053649902344 363.9348449707031 266.85321044921875 397.96046142578126 Z" style="fill: rgb(255, 156, 182); stroke: rgb(0, 0, 0); stroke-width: 2;"/>
	</g>
</g></g><g transform="matrix(-0.05664888024330139, -0.05005060136318207, 1.376125454902649, -1.5575683116912842, 727.7148991366713, 906.5171175370858)"><g id="g-29" transform="matrix(1, 0, 0, 1, 0, 0)">
	<g id="g-30">
		<path class="st0" d="M 112.42572975158691 41.7746696472168 L 140.40013885498047 42.01470947265625 L 158 149 L 58 149 L 112.42572975158691 41.7746696472168 Z" style="fill: rgb(0, 0, 0);"/>
	</g>
</g></g><g transform="matrix(-0.07475135475397109, 0.011289495974779129, -0.31039965152740473, -2.0550937652587886, 1038.1586580644298, 978.3308328662702)"><g id="g-31" transform="matrix(1, 0, 0, 1, 0, 0)">
	<g id="g-32">
		<path class="st0" d="M 112.42572975158691 41.7746696472168 L 140.40013885498047 42.01470947265625 L 158 149 L 58 149 L 112.42572975158691 41.7746696472168 Z" style="fill: rgb(0, 0, 0);"/>
	</g>
</g></g><g transform="matrix(0.06378128379583359, -0.040574371814727776, 1.1155726909637451, 1.7536287307739258, 755.965420759742, 334.51771969046524)"><g id="g-33" transform="matrix(1, 0, 0, 1, 0, 0)">
	<g id="g-34">
		<path class="st0" d="M 112.42572975158691 41.7746696472168 L 140.40013885498047 42.01470947265625 L 158 149 L 58 149 L 112.42572975158691 41.7746696472168 Z" style="fill: rgb(0, 0, 0);"/>
	</g>
</g></g><g transform="matrix(0.0685175433754921, 0.03193926066160202, -0.8781268000602722, 1.8837724924087524, 1111.4624910722418, 283.29194499901155)"><g id="g-35" transform="matrix(1, 0, 0, 1, 0, 0)">
	<g id="g-36">
		<path class="st0" d="M 112.42572975158691 41.7746696472168 L 140.40013885498047 42.01470947265625 L 158 149 L 58 149 L 112.42572975158691 41.7746696472168 Z" style="fill: rgb(0, 0, 0);"/>
	</g>
</g></g><g transform="matrix(0.026515399029215774, 0.0707958043331859, -1.946355076168084, 0.7289827768848431, 1318.1250516349842, 493.1234582703792)"><g id="g-37" transform="matrix(1, 0, 0, 1, 0, 0)">
	<g id="g-38">
		<path class="st0" d="M 112.42572975158691 41.7746696472168 L 140.40013885498047 42.01470947265625 L 158 149 L 58 149 L 112.42572975158691 41.7746696472168 Z" style="fill: rgb(0, 0, 0);"/>
	</g>
</g></g><g transform="matrix(-0.036827877163887024, 0.06602413207292557, -1.8151161670684814, -1.0124660730361938, 1297.8680425412763, 818.2973183679153)"><g id="g-39" transform="matrix(1, 0, 0, 1, 0, 0)">
	<g id="g-40">
		<path class="st0" d="M 112.42572975158691 41.7746696472168 L 140.40013885498047 42.01470947265625 L 158 149 L 58 149 L 112.42572975158691 41.7746696472168 Z" style="fill: rgb(0, 0, 0);"/>
	</g>
</g></g><g transform="matrix(1.9908874034881592, 0, 0, 1.9908874034881592, -332.3395032640617, 434.9610745120098)"><g id="g-1" transform="matrix(1, 0, 0, 1, 0, 0)">
	<g id="g-2">
		<path class="st0" d="M652,46c27.6,0,50,22.4,50,50s-22.4,50-50,50s-50-22.4-50-50S624.4,46,652,46z" style="fill: rgb(255, 205, 105); stroke: rgb(0, 0, 0); stroke-width: 2;"/>
	</g>
</g></g><path style="fill: rgb(51, 51, 51); fill-opacity: 1; stroke: rgb(0, 0, 0); stroke-opacity: 1; stroke-width: 0; paint-order: fill;" transform="matrix(0.6268687844276428, 0, 0, 0.6268687844276428, 363.92493155039074, 47.980824391846966)"/><path style="fill: rgb(51, 51, 51); fill-opacity: 1; stroke: rgb(0, 0, 0); stroke-opacity: 1; stroke-width: 2; paint-order: stroke;" transform="matrix(0.6268687844276428, 0, 0, 0.6268687844276428, 363.92493155039074, 47.980824391846966)"/><g transform="matrix(1.5535182952880862, 0, 0, 1.5535182952880862, -63.57622203485289, 469.65900478021416)"><g id="g-41" transform="matrix(1, 0, 0, 1, 0, 0)">
	<g id="g-42">
		<path class="st0" d="M652,46c27.6,0,50,22.4,50,50s-22.4,50-50,50s-50-22.4-50-50S624.4,46,652,46z" style="fill: rgb(255, 218, 176); stroke: rgb(0, 0, 0); stroke-width: 0; fill-opacity: 0.59;"/>
	</g>
</g></g><g transform="matrix(0.7152271270751953, 0, 0, 0.7152271270751953, 537.6607911961113, 531.911244409476)"><g id="g-43" transform="matrix(1, 0, 0, 1, 0, 0)">
	<g id="g-44">
		<path class="st0" d="M652,46c27.6,0,50,22.4,50,50s-22.4,50-50,50s-50-22.4-50-50S624.4,46,652,46z" style="fill: rgb(255, 232, 199); stroke: rgb(0, 0, 0); stroke-width: 0; fill-opacity: 1;"/>
	</g>
</g></g><path d="M 960.7801513671875 1320.464599609375" style="fill: rgb(0, 0, 0); fill-opacity: 1; stroke: rgb(0, 0, 0); stroke-opacity: 1; stroke-width: 4; paint-order: fill;"/></svg>